<svg width="400" height="220" viewBox="0 0 400 220" fill="none" xmlns="http://www.w3.org/2000/svg">
<path fill-rule="evenodd" clip-rule="evenodd" d="M52.2627 58.5676L87.9403 23.214L100.811 36.2024L78.2137 58.5943L100.923 81.0978L88.0529 94.0863L65.2247 71.4653L65.1332 71.556L55.1895 61.5212L52.3754 58.7327L52.4008 58.707L52.2627 58.5676ZM167.737 58.5676L132.059 23.214L119.189 36.2024L141.786 58.5943L119.076 81.0978L131.947 94.0863L154.775 71.4653L154.867 71.556L164.81 61.5212L167.624 58.7327L167.599 58.707L167.737 58.5676ZM97.3231 58.0887L110.66 71.426L122.961 59.1255L109.624 45.7882L97.3231 58.0887ZM110.66 116.616L97.3231 103.279L109.624 90.9787L122.961 104.316L110.66 116.616ZM97.3231 13.1584L110.66 26.4957L122.961 14.1952L109.624 0.857933L97.3231 13.1584Z" fill="#F4C714"/>
<path fill-rule="evenodd" clip-rule="evenodd" d="M96.2627 160.988L131.94 125.634L144.811 138.622L122.214 161.014L144.923 183.518L132.053 196.506L109.225 173.885L109.133 173.976L99.1895 163.941L96.3754 161.153L96.4008 161.127L96.2627 160.988ZM211.737 160.988L176.059 125.634L163.189 138.622L185.786 161.014L163.076 183.518L175.947 196.506L198.775 173.885L198.867 173.976L208.81 163.941L211.624 161.153L211.599 161.127L211.737 160.988ZM141.323 160.509L154.66 173.846L166.961 161.546L153.624 148.208L141.323 160.509ZM154.66 219.037L141.323 205.699L153.624 193.399L166.961 206.736L154.66 219.037ZM141.323 115.579L154.66 128.916L166.961 116.615L153.624 103.278L141.323 115.579Z" fill="#F4C714"/>
<path fill-rule="evenodd" clip-rule="evenodd" d="M322.263 58.9877L357.94 23.6341L370.811 36.6225L348.214 59.0144L370.923 81.5179L358.053 94.5063L335.225 71.8854L335.133 71.9761L325.19 61.9413L322.375 59.1527L322.401 59.1271L322.263 58.9877ZM437.737 58.9877L402.059 23.6341L389.189 36.6225L411.786 59.0144L389.076 81.5179L401.947 94.5063L424.775 71.8854L424.867 71.9761L434.81 61.9413L437.624 59.1527L437.599 59.1271L437.737 58.9877ZM367.323 58.5088L380.66 71.846L392.961 59.5456L379.624 46.2083L367.323 58.5088ZM380.66 117.037L367.323 103.699L379.624 91.3987L392.961 104.736L380.66 117.037ZM367.323 13.5785L380.66 26.9158L392.961 14.6153L379.624 1.27801L367.323 13.5785Z" fill="#F4C714"/>
<path fill-rule="evenodd" clip-rule="evenodd" d="M366.263 161.408L401.94 126.054L414.811 139.043L392.214 161.434L414.923 183.938L402.053 196.926L379.225 174.305L379.133 174.396L369.19 164.361L366.375 161.573L366.401 161.547L366.263 161.408ZM481.737 161.408L446.059 126.054L433.189 139.043L455.786 161.434L433.076 183.938L445.947 196.926L468.775 174.305L468.867 174.396L478.81 164.361L481.624 161.573L481.599 161.547L481.737 161.408ZM411.323 160.929L424.66 174.266L436.961 161.966L423.624 148.628L411.323 160.929ZM424.66 219.457L411.323 206.119L423.624 193.819L436.961 207.156L424.66 219.457ZM411.323 115.999L424.66 129.336L436.961 117.035L423.624 103.698L411.323 115.999Z" fill="#F4C714"/>
<path fill-rule="evenodd" clip-rule="evenodd" d="M-83.8579 160.988L-48.1803 125.634L-35.3098 138.622L-57.9069 161.014L-35.1972 183.518L-48.0677 196.506L-70.8959 173.885L-70.9874 173.976L-80.9311 163.941L-83.7452 161.153L-83.7198 161.127L-83.8579 160.988ZM31.6165 160.988L-4.06111 125.634L-16.9316 138.622L5.66547 161.014L-17.0443 183.518L-4.17377 196.506L18.6544 173.885L18.746 173.976L28.6897 163.941L31.5038 161.153L31.4784 161.127L31.6165 160.988ZM-38.7975 160.509L-25.4602 173.846L-13.1597 161.546L-26.497 148.208L-38.7975 160.509ZM-25.4602 219.037L-38.7975 205.699L-26.497 193.399L-13.1597 206.736L-25.4602 219.037ZM-38.7975 115.579L-25.4602 128.916L-13.1597 116.615L-26.497 103.278L-38.7975 115.579Z" fill="#F4C714"/>
<path fill-rule="evenodd" clip-rule="evenodd" d="M142.384 58.5676L178.061 23.214L190.932 36.2024L168.335 58.5943L191.045 81.0978L178.174 94.0863L155.346 71.4653L155.254 71.556L145.311 61.5212L142.496 58.7327L142.522 58.707L142.384 58.5676ZM257.858 58.5676L222.181 23.214L209.31 36.2024L231.907 58.5943L209.197 81.0978L222.068 94.0863L244.896 71.4653L244.988 71.556L254.931 61.5212L257.745 58.7327L257.72 58.707L257.858 58.5676ZM187.444 58.0887L200.781 71.426L213.082 59.1255L199.745 45.7882L187.444 58.0887ZM200.781 116.616L187.444 103.279L199.745 90.9787L213.082 104.316L200.781 116.616ZM187.444 13.1584L200.781 26.4957L213.082 14.1952L199.745 0.857933L187.444 13.1584Z" fill="#F4C714"/>
<path fill-rule="evenodd" clip-rule="evenodd" d="M186.384 160.988L222.061 125.634L234.932 138.623L212.335 161.014L235.045 183.518L222.174 196.506L199.346 173.885L199.254 173.976L189.311 163.941L186.496 161.153L186.522 161.127L186.384 160.988ZM301.858 160.988L266.181 125.634L253.31 138.623L275.907 161.014L253.197 183.518L266.068 196.506L288.896 173.885L288.988 173.976L298.931 163.941L301.746 161.153L301.72 161.127L301.858 160.988ZM231.444 160.509L244.781 173.846L257.082 161.546L243.745 148.208L231.444 160.509ZM244.781 219.037L231.444 205.699L243.745 193.399L257.082 206.736L244.781 219.037ZM231.444 115.579L244.781 128.916L257.082 116.615L243.745 103.278L231.444 115.579Z" fill="#F4C714"/>
<path fill-rule="evenodd" clip-rule="evenodd" d="M-37.8579 58.5676L-2.18033 23.214L10.6902 36.2024L-11.9069 58.5943L10.8028 81.0978L-2.06767 94.0863L-24.8959 71.4653L-24.9874 71.556L-34.9311 61.5212L-37.7452 58.7327L-37.7198 58.707L-37.8579 58.5676ZM77.6165 58.5676L41.9389 23.214L29.0684 36.2024L51.6655 58.5943L28.9557 81.0978L41.8262 94.0863L64.6544 71.4653L64.746 71.556L74.6897 61.5212L77.5038 58.7327L77.4784 58.707L77.6165 58.5676ZM7.20247 58.0887L20.5398 71.426L32.8403 59.1255L19.503 45.7882L7.20247 58.0887ZM20.5398 116.616L7.20247 103.279L19.503 90.9787L32.8403 104.316L20.5398 116.616ZM7.20247 13.1584L20.5398 26.4957L32.8403 14.1952L19.503 0.857933L7.20247 13.1584Z" fill="#F4C714"/>
<path fill-rule="evenodd" clip-rule="evenodd" d="M6.14209 160.988L41.8197 125.634L54.6902 138.622L32.0931 161.014L54.8028 183.518L41.9323 196.506L19.1041 173.885L19.0126 173.976L9.0689 163.941L6.25476 161.153L6.28019 161.127L6.14209 160.988ZM121.616 160.988L85.9389 125.634L73.0684 138.622L95.6655 161.014L72.9557 183.518L85.8262 196.506L108.654 173.885L108.746 173.976L118.69 163.941L121.504 161.153L121.478 161.127L121.616 160.988ZM51.2025 160.509L64.5398 173.846L76.8403 161.546L63.503 148.208L51.2025 160.509ZM64.5398 219.037L51.2025 205.699L63.503 193.399L76.8403 206.736L64.5398 219.037ZM51.2025 115.579L64.5398 128.916L76.8403 116.615L63.503 103.278L51.2025 115.579Z" fill="#F4C714"/>
<path fill-rule="evenodd" clip-rule="evenodd" d="M232.142 58.9877L267.82 23.6341L280.69 36.6225L258.093 59.0144L280.803 81.5179L267.932 94.5063L245.104 71.8854L245.013 71.9761L235.069 61.9413L232.255 59.1527L232.28 59.1271L232.142 58.9877ZM347.616 58.9877L311.939 23.6341L299.068 36.6225L321.665 59.0144L298.956 81.5179L311.826 94.5063L334.654 71.8854L334.746 71.9761L344.69 61.9413L347.504 59.1527L347.478 59.1271L347.616 58.9877ZM277.202 58.5088L290.54 71.846L302.84 59.5456L289.503 46.2083L277.202 58.5088ZM290.54 117.037L277.202 103.699L289.503 91.3987L302.84 104.736L290.54 117.037ZM277.202 13.5785L290.54 26.9158L302.84 14.6153L289.503 1.27801L277.202 13.5785Z" fill="#F4C714"/>
<path fill-rule="evenodd" clip-rule="evenodd" d="M276.142 161.408L311.82 126.054L324.69 139.043L302.093 161.434L324.803 183.938L311.932 196.926L289.104 174.305L289.013 174.396L279.069 164.361L276.255 161.573L276.28 161.547L276.142 161.408ZM391.616 161.408L355.939 126.054L343.068 139.043L365.665 161.434L342.956 183.938L355.826 196.926L378.654 174.305L378.746 174.396L388.69 164.361L391.504 161.573L391.478 161.547L391.616 161.408ZM321.202 160.929L334.54 174.266L346.84 161.966L333.503 148.628L321.202 160.929ZM334.54 219.457L321.202 206.119L333.503 193.819L346.84 207.156L334.54 219.457ZM321.202 115.999L334.54 129.336L346.84 117.035L333.503 103.698L321.202 115.999Z" fill="#F4C714"/>
</svg>
