<svg width="169" height="203" viewBox="0 0 169 203" fill="none" xmlns="http://www.w3.org/2000/svg">
<path d="M66.0002 44.1C63.9002 43.8 63.8002 43.7 64.8002 43.6C66.7002 43.3 71.1002 43.7 74.2002 44.4C81.4002 46.1 87.9002 50.5 94.8002 58.2L96.6002 60.3L99.2002 59.9C110.3 58.1 127.5 65.5 130.5 66C133.5 66.5 137.5 66.4 138 67C138.2 67.2 137.086 69.4379 136.5 71C135.328 74.1242 134 77 133.5 79C132.898 81.4084 137.5 82 140.4 77C141.025 75.9222 139.3 86.7 140.4 86.7C142.8 86.7 145.3 82.9 146.5 77.6L147 75.5L147.9 76.5C153 82.2 157 90.1 157.6 95.7L157.8 97.2L156.9 95.9C155.4 93.6 154 92.1 152.1 90.8C148.7 88.5 145.1 87.8 135.6 87.3C127 86.8 122.1 86.1 117.3 84.5C109.1 81.8 104.9 78.3 95.2002 65.4C90.9002 59.7 88.2002 56.6 85.5002 54C79.6002 48.3 73.7002 45.3 66.0002 44.1Z" fill="white"/>
<path d="M141.5 55.3C141.7 51.5 142.2 49 143.3 46.7C143.7 45.8 144.1 45 144.2 45C144.3 45 144.1 45.7 143.8 46.5C143 48.7 142.9 51.8 143.4 55.3C144.1 59.8 144.4 60.4 149.2 65.3C151.4 67.6 154 70.5 155 71.7L156.7 73.9L155 72.3C152.9 70.3 148.1 66.5 147 66C146.3 65.6 146.2 65.6 145.7 66.1C145.3 66.5 145.2 67.1 145.2 70C145.1 74.5 144.5 77.3 143 80.2C142.2 81.7 142.1 81.4 142.8 79.7C143.3 78.4 143.4 77.8 143.4 73.5C143.4 64.8 142.4 62.7 136.3 59.2C134.8 58.3 132.2 57 130.7 56.3C129.1 55.6 127.9 55 128 55C128.2 54.8 134.1 56.5 136.4 57.5C139.9 58.9 140.5 59 140.9 58.9C141.2 58.6 141.4 57.8 141.5 55.3Z" fill="white"/>
<path d="M137.769 63.4987C133.964 63.4172 131.45 62.9953 129.117 61.9675C128.205 61.5958 127.393 61.2209 127.39 61.121C127.386 61.021 128.092 61.1991 128.901 61.474C131.125 62.2051 134.227 62.2084 137.709 61.5996C142.185 60.7597 142.776 60.4412 147.524 55.4908C149.754 53.2202 152.572 50.5311 153.74 49.4942L155.886 47.7265L154.34 49.4755C152.406 51.6368 148.758 56.5529 148.292 57.668C147.914 58.3801 147.917 58.48 148.433 58.9642C148.845 59.3516 149.448 59.4328 152.346 59.3424C156.847 59.3022 159.665 59.8146 162.61 61.2235C164.134 61.9764 163.837 62.0857 162.116 61.439C160.801 60.9798 160.199 60.8985 155.901 61.0325C147.205 61.3036 145.137 62.3685 141.829 68.5746C140.976 70.102 139.758 72.7412 139.105 74.2623C138.455 75.8833 137.893 77.1014 137.889 77.0015C137.683 76.8078 139.199 70.8577 140.127 68.5277C141.417 64.9857 141.498 64.3829 141.386 63.9862C141.076 63.6957 140.271 63.5207 137.769 63.4987Z" fill="white"/>
<path d="M70.1 71.7C65.9 65.9 63.2 56.9 63.8 50.2L64 48.1L65 48.3C66.8 48.6 69.9 49.8 71.4 50.7C75.4 53.1 77.2 56.4 78.9 64.6C79.4 67 80.1 69.8 80.4 70.7C80.9 72.2 82.8 75.7 84.4 77.9C85.5 79.5 84.8 80.3 82.3 80.1C78.5 79.7 73.4 76.2 70.1 71.7Z" fill="white"/>
<path d="M135.4 115.2C115.6 107.2 108.6 100.3 108.6 88.6C108.6 86.9 108.7 85.5 108.7 85.5C108.8 85.5 109.5 86.1 110.4 86.8C114.4 90 118.9 91.4 131.4 93.2C138.7 94.3 142.9 95.1 146.7 96.4C158.8 100.4 166.3 108.6 168.1 119.7C168.6 122.9 168.3 129 167.5 132.2C166.8 134.7 164.8 139.3 164.3 139.4C164.2 139.4 164 138.9 164 138.1C163.8 133.9 161.7 129.9 158.2 126.8C154 123.2 148.6 120.5 135.4 115.2Z" fill="white"/>
<path d="M121.4 118.5C121.2 117 120.7 115.1 120.4 114.3L119.9 112.8L120.8 113.9C122.1 115.4 123.1 117.2 124 119.7C124.7 121.6 124.7 122.2 124.7 125.3C124.7 128.3 124.6 129 124 130.7C123 133.4 121.8 135.3 119.8 137.4C116.2 141.1 111.5 143.1 104.8 144C103.6 144.1 100.2 144.4 97.1998 144.6C89.6998 145 84.6998 145.8 80.1998 147.4C79.5998 147.6 78.9998 147.8 78.8998 147.7C78.6998 147.5 81.7998 145.7 84.2998 144.5C87.7998 142.8 91.3998 141.9 99.2998 140.5C103.2 139.9 107.2 139.1 108.2 138.7C118.1 135.6 123 127.9 121.4 118.5Z" fill="white"/>
<path d="M130.5 134.6C127.9 128.9 127.3 123.5 128.7 118.4C128.9 117.9 129.1 117.4 129.3 117.4C129.5 117.4 130.1 117.7 130.7 118.1C131.9 118.9 134.4 120.3 140.8 123.8C148.9 128.2 153.5 131.6 156.7 135.5C159.5 138.9 161.2 142.8 162 147.6C162.5 150.3 162.2 156.8 161.5 159.5C159.3 168 154.3 174.8 147 178.7C145.9 179.3 145 179.7 144.9 179.7C144.8 179.7 145.2 178.7 145.8 177.5C148.2 172.4 148.5 167.5 146.7 162C145.6 158.6 143.3 154.5 138.7 147.6C133.2 139.6 131.9 137.5 130.5 134.6Z" fill="white"/>
<path d="M117.231 155.676C117.264 149.411 118.986 144.258 122.397 140.216C122.789 139.846 123.18 139.476 123.362 139.56C123.543 139.644 123.962 140.168 124.338 140.783C125.092 142.013 126.773 144.333 131.113 150.196C136.618 157.59 139.366 162.607 140.634 167.49C141.748 171.751 141.654 176.004 140.365 180.697C139.686 183.357 136.685 189.131 134.917 191.288C129.352 198.079 121.96 202.153 113.697 202.628C112.447 202.711 111.462 202.697 111.371 202.655C111.28 202.613 112.063 201.873 113.111 201.035C117.43 197.414 119.759 193.092 120.434 187.345C120.863 183.797 120.496 179.11 119.217 170.917C117.583 161.347 117.285 158.895 117.231 155.676Z" fill="white"/>
<path d="M96.7754 160.737C100.04 155.39 104.176 151.867 109.185 150.169C109.711 150.055 110.237 149.94 110.349 150.106C110.461 150.271 110.549 150.936 110.554 151.658C110.564 153.1 110.805 155.955 111.492 163.217C112.386 172.391 112.148 178.107 110.711 182.942C109.464 187.167 107.186 190.76 103.658 194.112C101.702 196.039 96.1505 199.433 93.522 200.366C85.249 203.307 76.8151 202.976 69.4944 199.115C68.3811 198.54 67.5455 198.018 67.4894 197.936C67.4334 197.853 68.4858 197.624 69.8159 197.448C75.3849 196.578 79.6115 194.081 83.1583 189.509C85.3581 186.692 87.4652 182.49 90.6027 174.814C94.1469 165.775 95.1579 163.522 96.7754 160.737Z" fill="white"/>
<path fill-rule="evenodd" clip-rule="evenodd" d="M3.40005 4.3C26.7001 32.6 62.6001 76.6 64.4001 79C65.9001 81 65.3 82.9 62.8001 84.3C61.4001 85.1 58.5001 85.9 57.1001 85.9C55.5001 85.9 53.6001 85.1 52.3001 83.8C51.4001 82.9 47.5001 77.2 38.7001 63.5C32.0001 53 26.3001 44.3 26.2001 44.2C25.8001 44 25.8001 44 38.0001 65.8C45.7001 79.5 48.2001 84.4 48.2001 85C48.2001 86.3 47.8001 87 46.2001 88.8C43.5001 91.8 42.3001 95.2 41.4001 102.3C40.4001 110.2 37.7001 115.8 30.0001 125.3C25.5001 130.9 24.8001 131.9 23.7001 134.2C22.3001 137 21.9001 138.6 21.7001 142.2C21.5001 146 21.9001 148.4 23.0001 152C24.0001 155.2 25.1001 157.3 27.8001 161.4C30.1001 165 31.5001 167.7 31.5001 168.7C31.5001 169.5 31.7001 169.5 35.3001 168.7C43.9001 166.7 51.0001 163.3 54.9001 159.1C57.3001 156.5 57.9001 155.1 57.9001 151.5C57.9001 149.2 57.8001 148.7 57.2001 147.3C56.2001 145.1 54.3001 143.3 50.2001 140.5C44.8001 136.8 42.5001 133.8 41.9001 129.8C41.4001 126.4 42.0001 124.1 45.0001 117.8C48.1001 111.3 48.9001 108.6 49.4001 102C49.7001 97.8 50.2001 96.1 51.4001 94.8C52.7001 93.4 53.8001 92.9 56.9001 92.5C62.0001 91.8 65.3001 90.5 67.9001 88C70.2001 85.9 71.2001 83.8 71.3001 80.7L71.4001 78.4L70.1001 77C65.4001 71.6 0.300054 0 5.35161e-05 0C-0.0999465 0 1.50005 1.9 3.40005 4.3ZM34.1001 146.5C35.2001 144.6 34.6001 142.2 32.8001 141C31.1001 139.9 28.5001 140.4 28.5001 141.9C28.5001 142.3 28.7001 142.7 29.3001 142.9C30.2001 143.4 30.3001 143.9 29.6001 145C28.9001 146.1 28.9001 147.1 29.8001 147.8C31.2001 148.9 33.1001 148.3 34.1001 146.5Z" fill="white"/>
<path d="M63 86.5L53.5 88.5L35.5 61L0 0L35 40L68 78.5V83.5L63 86.5Z" fill="white"/>
<path d="M80.4347 94.907C82.0747 96.0038 82.4027 97.5879 81.528 99.0503C80.872 100.025 78.904 101 77.4827 101C75.296 101 73 99.294 73 97.7098C73 94.5415 77.4827 92.8354 80.4347 94.907Z" fill="white"/>
<path fill-rule="evenodd" clip-rule="evenodd" d="M74.6 93.9C72.2 94.6 69.9 97.2 69.2 99.8C68.8 101.4 69 104.3 69.7 105.2C70.8 106.6 71.8 107 74.6 107C80.1 107 84.8 104.6 85.3 101.7C85.8 99.3 83.7 96 80.8 94.5C79.3 93.7 76.2 93.4 74.6 93.9ZM81 98.9C81.8 97.7 81.5 96.4 80 95.5C77.3 93.8 73.2 95.2 73.2 97.8C73.2 99.1 75.3 100.5 77.3 100.5C78.6 100.5 80.4 99.7 81 98.9Z" fill="white"/>
<path d="M77.8 96.7443C79.3 97.6443 79.6 98.9443 78.8 100.144C78.2 100.944 76.4 101.744 75.1 101.744C73.1 101.744 71 100.344 71 99.0443C71 96.4443 75.1 95.0443 77.8 96.7443Z" fill="#090D15"/>
</svg>
