<svg width="183" height="183" viewBox="0 0 183 183" fill="none" xmlns="http://www.w3.org/2000/svg">
<circle cx="91.5" cy="91.5" r="91.5" fill="#05C0A5"/>
<path fill-rule="evenodd" clip-rule="evenodd" d="M143.815 113.144C148.651 102.647 150.153 90.9194 148.116 79.5425C146.079 68.1655 140.602 57.687 132.423 49.5202C124.245 41.3533 113.758 35.8912 102.379 33.8703C90.9989 31.8495 79.273 33.3673 68.7828 38.219L80.8125 64.2293C85.9819 61.8385 91.7603 61.0905 97.3681 62.0863C102.976 63.0822 108.144 65.7739 112.174 69.7984C116.204 73.8229 118.903 78.9866 119.907 84.5931C119.991 85.061 120.062 85.5301 120.122 86H81.5L142.5 113L142.427 112.505L143.815 113.144ZM38.1854 68.8556C33.3486 79.3527 31.8475 91.0807 33.8844 102.458C35.9214 113.835 41.3985 124.313 49.5769 132.48C57.7553 140.647 68.2416 146.109 79.6214 148.13C91.0012 150.151 102.727 148.633 113.217 143.781L101.188 117.771C96.0182 120.162 90.2398 120.91 84.632 119.914C79.0241 118.918 73.8566 116.226 69.8263 112.202C65.7961 108.177 63.0971 103.013 62.0933 97.407C61.0895 91.8006 61.8292 86.0212 64.2127 80.8483L38.1854 68.8556Z" fill="white"/>
</svg>
